<?xml version="1.0" encoding="UTF-8"?>
<svg version="1.1" xmlns="http://www.w3.org/2000/svg" width="512" height="512">
<path d="M0 0 C0.80719482 0.33620361 1.61438965 0.67240723 2.44604492 1.01879883 C9.33928944 4.04886953 17.16087744 8.45525978 20.9375 15.1875 C20.9375 20.67526943 19.19619685 23.87451887 15.9375 28.1875 C14.93711712 29.52054609 13.93704301 30.85382404 12.9375 32.1875 C13.59492187 33.21230469 13.59492187 33.21230469 14.265625 34.2578125 C33.93932584 65.52780041 50.68999159 94.52236414 44.359375 132.12109375 C42.2012933 145.57827465 41.5283129 156.67803164 49.5625 168.25 C54.69467989 174.66199301 61.0832714 179.86518805 67.6875 184.6875 C73.00050828 188.71935734 76.82278101 193.84334302 78.9375 200.1875 C79.58462923 206.52936641 78.25766624 211.79824466 74.9375 217.1875 C72.18562445 219.94739851 69.34154437 222.42664326 66.30078125 224.86328125 C63.84044082 226.97957164 63.84044082 226.97957164 62.94921875 229.58203125 C62.93360332 233.05386263 64.0258769 235.40136529 65.4375 238.5625 C67.47323259 243.57266411 68.71253268 246.86240196 66.9375 252.1875 C62.36529197 262.60197385 51.19425346 265.96891477 41.4375 269.875 C40.03465069 270.44733008 38.6323022 271.02088934 37.23046875 271.59570312 C34.64551706 272.65444997 32.05768975 273.70450134 29.46679688 274.7487793 C25.93757943 276.18746762 22.4360207 277.67608751 18.9375 279.1875 C27.77624261 285.27641158 35.71662513 284.56456733 46.06640625 283.85546875 C46.95336182 283.79794434 47.84031738 283.74041992 48.75415039 283.68115234 C50.51871071 283.56202726 52.28237616 283.42863767 54.04467773 283.27978516 C57.85203219 283.02484007 60.39632128 282.97573441 63.9921875 284.3828125 C65.9375 286.1875 65.9375 286.1875 66.6015625 288.31640625 C66.46710015 296.69341065 63.49537383 302.66178202 58.625 309.375 C56.27227121 313.29621465 56.43932566 316.70335625 57.33520508 321.1706543 C57.86386436 323.26740919 58.42956548 325.35175251 59 327.4375 C61.53372138 337.55162625 61.65157324 345.55552497 56.4375 354.90234375 C49.82414364 364.97737883 40.12646554 368.67483026 28.75756836 371.43798828 C20.35911623 373.08579604 11.81657284 373.84069191 3.3125 374.75 C0.42845742 375.06256707 -2.45525527 375.37762632 -5.33847046 375.69773865 C-7.11890225 375.89502145 -8.89982398 376.08795539 -10.68130493 376.27552795 C-16.55365423 376.92087944 -22.28804117 377.94326502 -28.0625 379.1875 C-32.60048178 403.13320261 -32.0625 426.72971392 -32.0625 451.1875 C-82.8825 451.1875 -133.7025 451.1875 -186.0625 451.1875 C-185.4025 441.2875 -184.7425 431.3875 -184.0625 421.1875 C-183.53815603 389.72686167 -185.59765169 371.6098364 -206.0625 347.1875 C-206.49014648 346.67493652 -206.91779297 346.16237305 -207.35839844 345.63427734 C-213.69429775 338.06205046 -220.2730591 330.7688693 -227.05224609 323.59204102 C-231.22838443 319.1471298 -235.13020675 314.54733739 -238.93359375 309.77734375 C-241.15044391 307.08051503 -243.48748362 304.54643189 -245.875 302 C-286.95031396 257.17902372 -307.21458632 201.84479079 -305.16796875 141.40881348 C-304.09646667 118.84154115 -298.87267049 95.98342027 -290.0625 75.1875 C-289.78067871 74.51686523 -289.49885742 73.84623047 -289.20849609 73.15527344 C-281.30108984 54.65080755 -270.24151064 38.32745723 -257.0625 23.1875 C-256.55187012 22.59710938 -256.04124023 22.00671875 -255.51513672 21.3984375 C-228.67337115 -9.38633253 -191.93250153 -24.63043216 -151.75 -28.5625 C-99.69028802 -31.34535292 -47.89975043 -20.16992686 0 0 Z " fill="#1A7AD6" transform="translate(329.0625,44.8125)"/>
<path d="M0 0 C3.37963867 1.37597656 3.37963867 1.37597656 6.91796875 3.140625 C7.56510834 3.45930038 8.21224792 3.77797577 8.8789978 4.10630798 C10.98618148 5.14566485 13.08666848 6.19787203 15.1875 7.25 C18.14612522 8.71434002 21.10815002 10.17173757 24.0703125 11.62890625 C24.81626175 11.99691849 25.562211 12.36493073 26.33076477 12.74409485 C31.23022776 15.15430946 36.15627546 17.49640699 41.1171875 19.77734375 C41.75298233 20.06974945 42.38877716 20.36215515 43.0438385 20.66342163 C46.03029877 22.033621 49.02068114 23.39476548 52.0144043 24.74902344 C66.26668334 31.26668334 66.26668334 31.26668334 70 35 C70.41189588 40.27605578 69.71690821 43.34926288 67.0078125 47.86328125 C66.38519531 48.91451172 65.76257813 49.96574219 65.12109375 51.04882812 C64.46238281 52.12583984 63.80367188 53.20285156 63.125 54.3125 C62.47402344 55.40884766 61.82304687 56.50519531 61.15234375 57.63476562 C56.36508737 65.63491263 56.36508737 65.63491263 54 68 C50.70778196 68.64668569 49.15871009 68.84797586 46 68 C42.27910433 65.40286476 39.20396119 62.19933119 36 59 C34.01820633 57.1465574 32.00860962 55.32428939 30 53.5 C28.98137735 52.5655329 27.96314503 51.63064014 26.9453125 50.6953125 C22.65499459 46.7691595 18.32962464 42.88269565 14 39 C8.54216056 34.10555044 3.0996777 29.19489132 -2.3125 24.25 C-3.76076172 22.92742187 -3.76076172 22.92742187 -5.23828125 21.578125 C-12.78781038 14.53047404 -12.78781038 14.53047404 -14.125 11.1875 C-13.94545109 6.60900268 -11.84574267 3.51730437 -9 0 C-5.84041803 -1.57979099 -3.40815221 -0.67922649 0 0 Z " fill="#F57E16" transform="translate(421,340)"/>
<path d="M0 0 C6.69376095 2.70598847 10.0881475 9.78998255 13.75 15.6875 C14.14743408 16.3160791 14.54486816 16.9446582 14.9543457 17.59228516 C17.93650453 22.55458712 19.5420538 26.98801526 18.4296875 32.875 C16.30668503 36.16509807 13.4793824 37.50834178 10.0625 39.1875 C9.32854004 39.56213379 8.59458008 39.93676758 7.83837891 40.32275391 C-1.63010533 45.08856402 -11.29302878 49.46691856 -20.9296875 53.87890625 C-25.55536574 56.00501384 -30.13917094 58.19361197 -34.6953125 60.46484375 C-35.72962402 60.9767627 -36.76393555 61.48868164 -37.82958984 62.01611328 C-39.7608637 62.9768501 -41.68615806 63.94974212 -43.60400391 64.93701172 C-49.07682525 67.64446835 -52.94360231 68.85452111 -59.0625 68.1875 C-61.84222705 66.54817379 -62.70026353 65.21182423 -63.765625 62.19921875 C-64.48725711 58.82966239 -64.68215157 56.33235811 -63.01171875 53.24609375 C-61.16054749 51.04581823 -59.17886779 49.13633625 -57.0625 47.1875 C-56.05808601 46.23751571 -55.05421585 45.28695622 -54.05078125 44.3359375 C-50.75944016 41.24390677 -47.41783518 38.20978403 -44.0625 35.1875 C-43.19109375 34.40117187 -42.3196875 33.61484375 -41.421875 32.8046875 C-39.80995268 31.35395741 -38.19667449 29.90473238 -36.58203125 28.45703125 C-33.76991519 25.92394686 -30.97661175 23.37083206 -28.1875 20.8125 C-27.68831055 20.35601074 -27.18912109 19.89952148 -26.67480469 19.42919922 C-24.05776418 17.03290331 -21.45732046 14.62143897 -18.87890625 12.18359375 C-18.35474121 11.6922998 -17.83057617 11.20100586 -17.29052734 10.69482422 C-15.83916662 9.33362727 -14.39398431 7.96585125 -12.94921875 6.59765625 C-9.04008222 3.33387108 -5.22434381 0.31985778 0 0 Z " fill="#FFA000" transform="translate(471.0625,222.8125)"/>
<path d="M0 0 C3.1375355 2.54150136 3.84469203 4.10952026 4.53344727 8.05859375 C4.56903526 11.70702259 4.59395324 15.3514245 4.5625 19 C4.59827148 20.90652344 4.59827148 20.90652344 4.63476562 22.8515625 C4.62680585 27.89275649 4.58202938 31.8167685 2.33984375 36.375 C-6.68700392 40.76701009 -20.18570915 37.77001453 -29.97265625 37.01171875 C-31.35313725 36.90671128 -32.73362548 36.80179892 -34.11412048 36.69697571 C-36.97573631 36.47814279 -39.83695266 36.25472613 -42.69799805 36.02856445 C-46.35517134 35.74034769 -50.01340842 35.46928914 -53.6721735 35.2021513 C-56.50992713 34.99215047 -59.34668095 34.77047171 -62.18328667 34.54554176 C-64.18400503 34.38972885 -66.18564174 34.24585523 -68.18727112 34.10221863 C-69.40301315 34.00234146 -70.61875519 33.90246429 -71.87133789 33.79956055 C-72.9371962 33.71739792 -74.0030545 33.63523529 -75.10121155 33.55058289 C-78.32372361 32.93851339 -80.35192178 31.91368439 -83 30 C-84.20996679 27.58006642 -84.27083271 25.8253367 -84.375 23.125 C-84.42398437 22.26132812 -84.47296875 21.39765625 -84.5234375 20.5078125 C-83.76633006 16.88047685 -82.0293768 16.04701158 -79 14 C-75.84651184 12.98748779 -75.84651184 12.98748779 -72.25708008 12.26074219 C-71.5994165 12.12360809 -70.94175293 11.986474 -70.26416016 11.84518433 C-68.1019057 11.39824289 -65.93615163 10.97210336 -63.76953125 10.546875 C-62.25343936 10.23968071 -60.73754746 9.93149793 -59.22184753 9.62237549 C-56.04701897 8.97812238 -52.87042124 8.34378286 -49.69213867 7.71679688 C-45.64187782 6.91728856 -41.59626368 6.09667009 -37.55170155 5.26887131 C-34.4208421 4.62998665 -31.28807677 4.00089549 -28.15463829 3.37479401 C-26.66356046 3.07598626 -25.17299598 2.77460373 -23.68299294 2.47048187 C-5.63958728 -1.19616536 -5.63958728 -1.19616536 0 0 Z " fill="#FF8F00" transform="translate(492,293)"/>
</svg>
